# xmcd
#
# Track frame offsets:
#	150
#	9593
#	29756
#	54281
#	65273
#	81922
#	84517
#	102055
#	119605
#	137138
#
# Disc length: 2162 seconds
#
# Revision: 1
# Processed by: cddbd v1.4PL0 Copyright (c) Steve Scherf et al.
# Submitted via: audiograbber 1.80
#
DISCID=7f08700a
DTITLE=Yankee-Noodles - Yankee-Noodles
DYEAR=1900
DGENRE=
TTITLE0=Tell it to me
TTITLE1=Ferdinand, the Cuttle Fish
TTITLE2=Long Way to Hollywood
TTITLE3=Little Maggie
TTITLE4=The Devil went to Georgia
TTITLE5=Silvie's Song
TTITLE6=Money for nothing
TTITLE7=Can't Stop now
TTITLE8=Minddriving (Windy and Warm)
TTITLE9=You really got me
EXTD=
EXTT0=
EXTT1=
EXTT2=
EXTT3=
EXTT4=
EXTT5=
EXTT6=
EXTT7=
EXTT8=
EXTT9=
PLAYORDER=
